<?xml version="1.0" standalone="no"?><!DOCTYPE svg PUBLIC "-//W3C//DTD SVG 1.1//EN" "http://www.w3.org/Graphics/SVG/1.1/DTD/svg11.dtd"><svg t="1495539097318" class="icon" style="" viewBox="0 0 1024 1024" version="1.1" xmlns="http://www.w3.org/2000/svg" p-id="2603" xmlns:xlink="http://www.w3.org/1999/xlink" width="128" height="128"><defs><style type="text/css"></style></defs><path d="M199.5 75.3c53.3 0 100.5 32.8 119.5 81.6-32.3 16.1-62.5 36.1-89.9 59.5l-74.8-74.8c-9.2-9.2-24.1-9.2-33.2 0-9.2 9.2-9.2 24.1 0 33.2l73.9 73.9c-27.3 28.8-50.7 61.1-69.5 96-47-20.2-77.6-66.6-77.5-117.9 0-30.5 5.4-106.9 8.1-143.5 36.5-2.6 112.9-8 143.4-8z m766.1 8.1c2.7 36.5 8.1 113 8.1 143.5 0 47.8-26.5 91.6-68.8 113.7-19.6-35.7-44-68.5-72.6-97.5l68.2-68.2c9.2-9.2 9.2-24 0-33.2-9.2-9.2-24-9.2-33.2 0l-69.7 69.7c-28.5-23.5-59.7-43.3-93.1-58.9 20.1-46.2 66-77.1 117.7-77.1 30.5-0.1 106.9 5.3 143.4 8z" fill="#FF4893" p-id="2604"></path><path d="M873.5 382.2c25.8 53.6 38.8 111.3 38.8 171.3 0 218.4-177.7 396.1-396.1 396.1s-396-177.7-396-396.1c0-112.6 47.2-214.3 122.9-286.5 33.5-32 72.4-57.9 114.8-76.5 48.5-21.3 102.2-33.1 158.4-33.1 51.9 0 102.3 9.9 149.9 29.4 43 17.6 82.5 42.6 116.9 73.9 37.4 34 67.9 74.8 89.9 120.2 0 0.1 0 0.1 0.1 0.2 0.1 0.3 0.3 0.6 0.4 0.9v0.2z m-107.2 304c0-66.1-53.7-119.8-119.8-119.8H386.1c-32 0-62.1 12.4-84.7 35.1-22.6 22.6-35.1 52.7-35.1 84.7 0 66.1 53.7 119.8 119.8 119.8h260.3c66.1 0 119.9-53.7 119.9-119.8z m-41.4-300.3c9.2-9.2 9.2-24 0-33.2-9.2-9.2-24-9.2-33.2 0l-16.6 16.6-16.6-16.6c-9.2-9.2-24-9.2-33.2 0-9.2 9.2-9.2 24 0 33.2l16.6 16.6-16.6 16.6c-9.2 9.2-9.2 24 0 33.2 4.4 4.4 10.4 6.9 16.6 6.9 6.2 0 12.2-2.5 16.6-6.9l16.6-16.6 16.6 16.6c4.4 4.4 10.4 6.9 16.6 6.9 6.2 0 12.2-2.5 16.6-6.9 9.2-9.2 9.2-24 0-33.2l-16.6-16.6c0 0.1 16.6-16.6 16.6-16.6z m-334.1 0c9.2-9.2 9.2-24 0-33.2-9.2-9.2-24-9.2-33.2 0L341 369.3l-16.7-16.6c-9.2-9.2-24-9.2-33.2 0-9.2 9.2-9.2 24 0 33.2l16.6 16.6-16.7 16.7c-9.2 9.2-9.2 24 0 33.2 4.4 4.4 10.4 6.9 16.6 6.9 6.2 0 12.2-2.5 16.6-6.9l16.7-16.6 16.6 16.6c4.4 4.4 10.4 6.9 16.6 6.9 6.2 0 12.2-2.5 16.6-6.9 9.2-9.2 9.2-24 0-33.2l-16.6-16.6 16.7-16.7z" fill="#FFB578" p-id="2605"></path><path d="M646.4 613.3c40.2 0 72.9 32.7 72.9 72.9s-32.7 72.9-72.9 72.9H386.1c-40.2 0-72.9-32.7-72.9-72.9 0-19.5 7.6-37.8 21.3-51.5 13.7-13.7 32.2-21.4 51.6-21.3h260.3z m34.2 72.7c0-29-23.6-52.6-52.6-52.6S575.4 657 575.4 686s23.6 52.6 52.6 52.6 52.6-23.6 52.6-52.6z m-219 0c0-29-23.6-52.6-52.6-52.6S356.4 657 356.4 686s23.6 52.6 52.6 52.6c28.9 0 52.6-23.6 52.6-52.6z" fill="#FF4893" p-id="2606"></path><path d="M628 680.4c3.1-0.1 5.7 2.3 5.8 5.4 0.1 3.1-2.3 5.7-5.4 5.8h-0.3c-3.1-0.1-5.5-2.7-5.4-5.8 0-2.9 2.4-5.3 5.3-5.4z m-219 0c3.1 0 5.6 2.5 5.6 5.6 0 3.1-2.5 5.6-5.6 5.6-3.1 0-5.6-2.5-5.6-5.6-0.1-3.1 2.5-5.6 5.6-5.6z" fill="#8B87C1" p-id="2607"></path><path d="M409 633.4c-29 0-52.6 23.6-52.6 52.6s23.6 52.6 52.6 52.6 52.6-23.6 52.6-52.6-23.7-52.6-52.6-52.6z m0 58.2c-3.1 0.1-5.7-2.3-5.8-5.4-0.1-3.1 2.3-5.7 5.4-5.8h0.3c3.1 0.1 5.5 2.7 5.5 5.8-0.1 2.9-2.4 5.3-5.4 5.4z m-68.1-322.2l-16.7-16.6c-9.2-9.2-24-9.2-33.2 0-9.2 9.2-9.2 24 0 33.2l16.6 16.6-16.6 16.6c-9.2 9.2-9.2 24 0 33.2 4.6 4.6 10.6 6.9 16.6 6.9 6 0 12-2.3 16.6-6.9l16.7-16.6 16.6 16.6c4.6 4.6 10.6 6.9 16.6 6.9s12-2.3 16.6-6.9c9.2-9.2 9.2-24 0-33.2l-16.6-16.6 16.6-16.6c9.2-9.2 9.2-24 0-33.2-9.2-9.2-24-9.2-33.2 0l-16.6 16.6z" fill="#4F46A3" p-id="2608"></path><path d="M646.4 566.4H386.1c-32 0-62.1 12.4-84.7 35.1-22.6 22.6-35.1 52.7-35.1 84.7 0 66.1 53.7 119.8 119.8 119.8h260.3c66.1 0 119.8-53.7 119.8-119.8s-53.7-119.8-119.8-119.8z m0 192.7H386.1c-40.2 0-72.9-32.7-72.9-72.9 0-19.5 7.6-37.8 21.3-51.5 13.7-13.7 32.2-21.4 51.6-21.3h260.3c40.2 0 72.9 32.7 72.9 72.9 0 40.1-32.7 72.8-72.9 72.8z" fill="#4F46A3" p-id="2609"></path><path d="M1020.7 226.8c0-42.4-9.4-162.1-9.8-167.2-0.9-11.5-10.1-20.7-21.6-21.6-5.1-0.4-124.7-9.8-167.1-9.8-71 0-134 42.6-161.2 106.3-46.4-16.1-94.9-24.2-144.7-24.2-54.2 0-106.1 9.8-154.2 27.7-26.3-65.5-90.4-109.7-162.6-109.7-42.4 0-162.1 9.4-167.1 9.8-11.5 0.9-20.7 10-21.6 21.5C10.4 64.7 1 184.4 1 226.8c0 69.5 41 132.4 104.6 160.4C84.2 440 73.2 496.5 73.2 553.5c0 244.3 198.8 443 443.1 443s443-198.7 443-443c0-59.4-11.4-116.6-34.1-170.6 58.7-30 95.6-90.3 95.5-156.1z m-368.9-61.7c0-2 0.3-4 0.8-5.9 0.2-0.8 0.4-1.6 0.6-2.3-0.2 0.8-0.4 1.6-0.6 2.3-0.5 1.9-0.8 3.9-0.8 5.9z m-295.4 21.3c-0.1 0-0.2 0.1-0.2 0.1-1.2 0.5-2.5 1-3.8 1.3 1.3-0.3 2.7-0.8 4-1.4zM48 226.8c0-30.5 5.4-106.9 8.1-143.5 36.5-2.7 112.9-8.1 143.4-8.1 53.3 0 100.5 32.8 119.5 81.6-32.3 16.1-62.5 36.1-89.9 59.5l-74.8-74.8c-9.2-9.2-24.1-9.2-33.2 0-9.2 9.2-9.2 24.1 0 33.2l73.9 73.9c-27.3 28.8-50.7 61.1-69.5 96-47-20.1-77.6-66.5-77.5-117.8z m166.9 38.6z m301.4 684.2c-218.4 0-396.1-177.7-396.1-396.1 0-112.6 47.2-214.3 122.9-286.5 33.5-32 72.4-57.9 114.8-76.5 48.5-21.3 102.2-33.1 158.4-33.1 51.9 0 102.3 9.9 149.9 29.4 0.1 0 0.2 0.1 0.2 0.1 42.9 17.6 82.4 42.6 116.6 73.8 37.4 34 67.9 74.8 89.9 120.2 0 0.1 0 0.1 0.1 0.2 0.1 0.3 0.3 0.6 0.4 0.9l0.1 0.2c25.8 53.6 38.8 111.3 38.8 171.3 0.1 218.4-177.6 396.1-396 396.1zM871 366.4c0.1-0.7 0.3-1.5 0.5-2.2-0.2 0.7-0.4 1.5-0.5 2.2z m-2.4-40.8z m11.9 25.9c-0.5 0.3-0.9 0.7-1.3 1 0.4-0.3 0.8-0.7 1.3-1z m-2.5 2c-0.4 0.4-0.8 0.8-1.2 1.3 0.4-0.4 0.8-0.9 1.2-1.3z m-2.2 2.3c-0.3 0.4-0.6 0.9-1 1.3 0.4-0.4 0.7-0.9 1-1.3z m-1.8 2.6c-0.3 0.4-0.5 0.9-0.7 1.4 0.2-0.5 0.4-1 0.7-1.4z m-1.5 2.8c-0.2 0.5-0.4 1-0.6 1.6 0.3-0.5 0.4-1.1 0.6-1.6z m-77.9-94.8c-0.7-0.1-1.3-0.4-2-0.6 0.6 0.2 1.3 0.5 2 0.6z m-4.2-1.2c-0.7-0.3-1.3-0.7-2-1 0.7 0.4 1.3 0.8 2 1z m21.4-2.3c-0.6 0.4-1.2 0.6-1.8 0.9 0.6-0.3 1.3-0.5 1.8-0.9z m-4 2.2c-0.8 0.3-1.5 0.5-2.3 0.7 0.7-0.3 1.5-0.4 2.3-0.7zM781 228z m113.1 142.7z m9.6 21.4z m1.2-51.6c-19.6-35.7-44-68.5-72.6-97.5l68.2-68.2c9.2-9.2 9.2-24 0-33.2-9.2-9.2-24-9.2-33.2 0l-69.7 69.7c-28.5-23.5-59.7-43.3-93.1-58.9 20.1-46.2 66-77.1 117.7-77.1 30.5 0 106.9 5.4 143.4 8.1 2.7 36.5 8.1 113 8.1 143.5 0.1 47.7-26.4 91.5-68.8 113.6z" fill="#4F46A3" p-id="2610"></path><path d="M628 633.4c-29 0-52.6 23.6-52.6 52.6s23.6 52.6 52.6 52.6 52.6-23.6 52.6-52.6-23.6-52.6-52.6-52.6z m0 58.2c-3.1 0-5.6-2.5-5.6-5.6 0-3.1 2.5-5.6 5.6-5.6 3.1 0 5.6 2.5 5.6 5.6 0 3.1-2.5 5.6-5.6 5.6zM675.1 369.4l-16.7-16.6c-9.2-9.2-24-9.2-33.2 0-9.2 9.2-9.2 24 0 33.2l16.6 16.6-16.6 16.6c-9.2 9.2-9.2 24 0 33.2 4.6 4.6 10.6 6.9 16.6 6.9 6 0 12-2.3 16.6-6.9l16.7-16.6 16.6 16.6c4.6 4.6 10.6 6.9 16.6 6.9 6 0 12-2.3 16.6-6.9 9.2-9.2 9.2-24 0-33.2l-16.6-16.6 16.6-16.6c9.2-9.2 9.2-24 0-33.2-9.2-9.2-24-9.2-33.2 0l-16.6 16.6z" fill="#4F46A3" p-id="2611"></path></svg>